<svg id="Grupo_2" data-name="Grupo 2" xmlns="http://www.w3.org/2000/svg" xmlns:xlink="http://www.w3.org/1999/xlink" width="53.078" height="64.95" viewBox="0 0 53.078 64.95">
  <defs>
    <linearGradient id="linear-gradient" x1="0.5" y1="-0.239" x2="0.5" y2="1.331" gradientUnits="objectBoundingBox">
      <stop offset="0" stop-color="#f53f3d"/>
      <stop offset="1" stop-color="#a23432"/>
    </linearGradient>
    <linearGradient id="linear-gradient-2" x1="0.5" y1="0.226" x2="0.5" y2="5.143" xlink:href="#linear-gradient"/>
  </defs>
  <g id="Grupo_1" data-name="Grupo 1" transform="translate(0 0)">
    <path id="Trazado_1" data-name="Trazado 1" d="M540.038,436.171c-5.49,9.529-2,23.988,4.072,32.756,3.031,4.384,6.1,8.318,10.3,8.318.079,0,.158,0,.239-.005a12.711,12.711,0,0,0,4.782-1.274,13.09,13.09,0,0,1,5.664-1.342,12.316,12.316,0,0,1,5.391,1.3,11.418,11.418,0,0,0,5.165,1.239c4.734-.088,7.642-4.334,10.206-8.08a35.793,35.793,0,0,0,4.471-9.158l.019-.058a.533.533,0,0,0-.283-.653l-.038-.016a13.568,13.568,0,0,1-8.224-12.429c-.072-7.184,5.486-10.987,6.6-11.678l.052-.032a.533.533,0,0,0,.151-.748,15.361,15.361,0,0,0-12.082-6.561c-.344-.034-.7-.052-1.054-.052a21.071,21.071,0,0,0-7.583,1.893,12.177,12.177,0,0,1-3.633,1.086,11.877,11.877,0,0,1-3.758-1.1,18.187,18.187,0,0,0-6.622-1.682l-.167,0a16.24,16.24,0,0,0-13.669,8.275Zm0,0" transform="translate(-537.3 -412.295)" fill="url(#linear-gradient)"/>
    <path id="Trazado_2" data-name="Trazado 2" d="M647.76,369.839a14.834,14.834,0,0,0-9.79,5.022c-2.045,2.37-4.044,6.32-3.516,10.3a.529.529,0,0,0,.485.461c.226.018.459.027.688.027a12.541,12.541,0,0,0,9.241-4.739,14.645,14.645,0,0,0,3.443-10.6.536.536,0,0,0-.551-.474Zm0,0" transform="translate(-608.53 -369.839)" fill="url(#linear-gradient-2)"/>
  </g>
</svg>
